+8_ID_stride5.mot
nRows=15
nColumns=38

name +8_ID_stride5.mot
datacolumns 38
datarows 15
range 2.6550000000 2.7250000000
endheader
time	pelvis_tilt_moment	pelvis_list_moment	pelvis_rotation_moment	pelvis_tx_force	pelvis_ty_force	pelvis_tz_force	hip_flexion_r_moment	hip_adduction_r_moment	hip_rotation_r_moment	knee_angle_r_moment	ankle_angle_r_moment	subtalar_angle_r_moment	mtp_angle_r_moment	hip_flexion_l_moment	hip_adduction_l_moment	hip_rotation_l_moment	knee_angle_l_moment	ankle_angle_l_moment	subtalar_angle_l_moment	mtp_angle_l_moment	lumbar_extension_moment	lumbar_bending_moment	lumbar_rotation_moment	arm_flex_r_moment	arm_add_r_moment	arm_rot_r_moment	elbow_flex_r_moment	pro_sup_r_moment	wrist_flex_r_moment	wrist_dev_r_moment	arm_flex_l_moment	arm_add_l_moment	arm_rot_l_moment	elbow_flex_l_moment	pro_sup_l_moment	wrist_flex_l_moment	wrist_dev_l_moment
        2.6550000000	      -22.6735036023	      -59.1020133936	      -38.1015417644	       17.5319647833	      151.5656181120	      207.6767594594	     -149.9126422465	      -17.8337291837	       -0.7668925158	      -73.5423214688	        1.2537386757	        0.1163184961	        0.0481583370	       89.2197478234	      -50.8275804751	       13.0644319974	       35.1062617277	        4.0872007746	       -1.2372075468	        0.1447076356	       13.5270388600	      -11.4220492303	       -7.3443728857	       -2.8214216282	       -1.7502530528	       -1.0254639897	        0.1734203064	       -0.0244046588	       -0.0887103086	       -0.0170888843	       -2.2533072882	        2.3582394956	        1.7593319738	       -0.1502152398	        0.0429992760	        0.1670498914	        0.0569540025	
        2.6600000000	       13.1233625546	       -1.2180726359	      -23.7764729087	        9.8581311815	      284.9424379858	      205.5280251419	      -86.4487686417	      -26.1873895386	        5.5220883650	      -33.6602386852	       10.7702013583	        5.4036968439	        0.1315763110	       79.0684471257	      -41.7102831069	       13.4557939108	       34.0651208069	        4.4350772674	       -1.2338528554	        0.1909429524	       27.8988559398	      -22.9458533251	       -7.2059580134	       -3.8047740021	       -1.0579317288	       -0.5399655360	        0.7983512188	       -0.0235970083	       -0.0322361676	       -0.0530915922	       -3.6044939878	        1.9385860324	        1.7426019336	        0.3746789930	        0.0286086027	        0.1740772615	        0.0183597999	
        2.6650000000	       49.2545335964	       35.2527086343	       -7.5850263717	        1.8617876588	      380.8235823902	      175.0781212391	      -53.7628490525	      -40.1432037832	       17.5742055556	      -12.1519971225	       11.3778409495	       11.8160341323	        0.2125608801	       72.0238072043	      -32.1828358271	       13.2592228280	       32.6247677230	        4.7476747740	       -1.2303647435	        0.2318471886	       43.8051876044	      -33.7031541622	       -5.1652267697	       -4.2861441940	       -0.1422152551	        0.0764819620	        1.6030939107	       -0.0214952508	        0.0415725616	       -0.1047040520	       -4.6589555244	        1.3488725517	        1.4592683707	        1.0836006442	        0.0049340850	        0.1665306700	       -0.0459738263	
        2.6700000000	       78.2489487659	       58.3208052987	        8.6253419981	       -0.2560722144	      421.4810458778	      118.1668386079	      -40.3569789886	      -54.1901455049	       30.5428963428	       -2.1328243986	       -0.2717614761	       18.3723698347	        0.2818753605	       69.1027465467	      -23.6009553744	       12.5418118978	       31.3506995728	        5.0082414434	       -1.2280929849	        0.2642504412	       57.0530253378	      -41.2610609532	       -2.2898502641	       -4.1633351634	        0.7744109251	        0.6832930534	        2.4055894557	       -0.0195485194	        0.1158461736	       -0.1596090714	       -5.2173758951	        0.7573664844	        1.0723536877	        1.8140508287	       -0.0216055863	        0.1443436864	       -0.1176327016	
        2.6750000000	       81.5779682023	       63.9861229830	       22.5236663388	        8.9017781449	      373.7530682613	       44.3953626808	      -45.2055260407	      -62.4157434749	       40.9830356055	        1.5664190084	      -17.5710611777	       24.4364095965	        0.3268338188	       70.0454057462	      -16.9150922750	       11.6072492683	       30.5738107189	        5.1418688310	       -1.2162728893	        0.2828905488	       61.2789064144	      -40.5914448490	        0.8250920000	       -3.5826393049	        1.3679371076	        1.1032407012	        2.9894601846	       -0.0186633829	        0.1713255093	       -0.2014398200	       -5.0869216728	        0.4091362545	        0.6959963676	        2.3620630046	       -0.0436223590	        0.1168727228	       -0.1754086591	
        2.6800000000	       79.5056647664	       63.4246378629	       32.4740308312	       30.1165643435	      258.6783843344	      -20.1780506573	      -59.9256052477	      -64.4289215673	       45.1123512004	        2.5758598381	      -37.0873407885	       29.6621116070	        0.3413711043	       72.1951702510	      -11.7501584226	       10.5159730547	       30.3207989474	        5.1747194641	       -1.1886335745	        0.2885172620	       61.7443163089	      -37.3255876412	        3.6620494958	       -2.6331356548	        1.5498839106	        1.2428453947	        3.1940857438	       -0.0185539738	        0.1909467328	       -0.2196512989	       -4.6979423788	        0.3161599887	        0.4472038797	        2.6126061202	       -0.0555230892	        0.0918061002	       -0.2060100842	
        2.6850000000	       47.1413073473	       40.0120819830	       37.6244979492	       61.0308923331	       84.3049969071	      -53.4398942087	      -91.5861255421	      -55.7751224096	       45.2697667078	        2.5241327105	      -54.4709798031	       33.7575054858	        0.3320565152	       74.4945291648	       -7.9685497994	        9.3160334334	       30.3513756536	        5.0589767309	       -1.1303613502	        0.2829518360	       54.1642282487	      -25.9627704047	        5.7753894057	       -1.6486169551	        1.3015433144	        1.1633233501	        3.1907152226	       -0.0207110867	        0.1902656660	       -0.2219077589	       -3.9417234550	        0.5882181328	        0.3562537900	        2.6536320854	       -0.0585913066	        0.0766716123	       -0.2136956499	
        2.6900000000	        4.6706024134	        8.4143270533	       38.7127572758	       94.0662338877	      -93.0770298393	      -48.6825879404	     -126.7551202770	      -39.5538462749	       39.5442716712	        6.6846800087	      -66.5269321158	       36.8759689154	        0.2940206796	       75.2229546149	       -4.9444019171	        8.0336946314	       30.4599465177	        4.8164192834	       -1.0430026643	        0.2664466456	       44.6224287280	      -12.3209230634	        7.0034251941	       -0.8208468335	        0.6997172296	        0.8564657874	        2.9697594093	       -0.0256049722	        0.1626057896	       -0.2109812984	       -3.1600771261	        1.1419535217	        0.4462577443	        2.5294299318	       -0.0530205664	        0.0744029708	       -0.2028742184	
        2.6950000000	      -36.1654969411	      -19.8545082316	       37.4281119208	      121.8884204270	     -233.5077072719	      -20.7633417362	     -154.9081951180	      -22.2625706991	       32.3637203546	       18.4682796156	      -73.0335359620	       39.1805770039	        0.2416973758	       74.3180601738	       -2.2809913542	        6.6870084948	       30.2975143345	        4.5092218515	       -0.9332787110	        0.2453805218	       36.7412143331	        0.0879042170	        7.3614406431	       -0.1662408347	        0.0679150810	        0.5125931034	        2.8841370466	       -0.0333974089	        0.1312653452	       -0.2124466567	       -2.4170804902	        1.7536197128	        0.6177242110	        2.5400172828	       -0.0471094916	        0.0824892479	       -0.2021352807	
        2.7000000000	      -61.0732837770	      -26.4223922853	       36.2446646018	      132.2092779101	     -292.1536600323	        4.9429242305	     -157.8957996801	       -9.8896870316	       27.7107965781	       39.6822781477	      -77.1779469575	       41.1216771982	        0.1837944563	       72.6734373571	        0.1626488183	        5.2720358197	       29.7603970426	        4.1945120729	       -0.8093571970	        0.2239826743	       35.8631810007	        5.9225041592	        7.3337925395	        0.4713458126	       -0.0887671067	        0.3373917113	        3.0615506577	       -0.0437924655	        0.1240934872	       -0.2332960745	       -1.6709325618	        2.1461773123	        0.6987031427	        2.7624656827	       -0.0493118860	        0.0955323253	       -0.2204720615	
        2.7050000000	      -63.2181963297	      -21.8092598906	       36.5445296018	      128.6240434314	     -285.5926334940	        4.5951152224	     -151.6336610938	       -7.7409690843	       27.6085370763	       67.8740376583	      -82.0734872783	       43.3571660757	        0.1307126956	       71.7199147303	        2.4422937313	        3.7393917889	       28.7111482075	        3.9279957712	       -0.6773208654	        0.2065296018	       37.6923851734	        5.0995722586	        7.3760109247	        1.2781679646	        0.0809220167	        0.3723283395	        3.7039703486	       -0.0554922426	        0.1334825059	       -0.2924753762	       -0.8432458774	        2.1508103971	        0.6488558337	        3.4144835859	       -0.0625794831	        0.0984571306	       -0.2819343088	
        2.7100000000	      -45.7986341407	        3.9686951130	       39.7028281971	       99.2920229523	     -194.6502264866	      -30.1696310441	     -122.4322588617	      -11.4956808065	       32.5120806512	       98.0527325197	      -89.8987004800	       46.3536282076	        0.0861773378	       71.3853637713	        4.6076598604	        2.0680521061	       27.1284632362	        3.7136478083	       -0.5404221990	        0.1933689593	       47.5086952140	       -5.5046453278	        7.8866594477	        2.3778376139	        1.1209574917	        0.7571891577	        4.8676229358	       -0.0670415744	        0.1898735300	       -0.3899439634	        0.0981970456	        1.6902924249	        0.2874384564	        4.4899444807	       -0.0944420537	        0.0925451052	       -0.3886546264	
        2.7150000000	      -13.5407487024	       28.5479404782	       45.1381553646	       53.2450981099	      -60.2361980697	      -90.4655332960	      -94.7013677162	      -20.9041095023	       40.7924717162	      121.6234398650	     -102.5442729857	       50.6852151710	        0.0550945917	       71.5584933772	        6.7319101532	        0.2257038474	       25.0368012882	        3.5460952253	       -0.3988233620	        0.1851174205	       59.6020097103	      -22.7626727998	        9.2060310257	        3.8126413851	        2.6463040792	        1.4063219519	        6.3339623066	       -0.0761681310	        0.2732554004	       -0.5091486335	        1.1354355318	        0.7997719668	       -0.3101463126	        5.8010860715	       -0.1382736682	        0.0686117528	       -0.5227464680	
        2.7200000000	       24.8754732841	       40.0068112694	       52.5178299202	       -4.2349722744	       90.7627957434	     -160.5362941192	      -76.4054251047	      -32.4340680567	       50.4420137555	      133.0989862909	     -120.0650659547	       56.1576478981	        0.0363724803	       70.9386815476	        8.7873510030	       -1.6771793865	       22.4161170758	        3.3791421359	       -0.2560275772	        0.1790457587	       72.3893469214	      -44.0450992010	       11.4952334068	        5.4543448521	        4.5057978452	        2.2546489892	        7.9126799410	       -0.0805953891	        0.3770972138	       -0.6336730757	        2.1385052619	       -0.3949682559	       -1.0978914537	        7.1689133979	       -0.1894354554	        0.0273387470	       -0.6666704815	
        2.7250000000	       58.0888986001	       39.5897562513	       60.5208143604	      -60.2105258205	      218.5135935671	     -219.2615605340	      -72.2183135022	      -42.5569240356	       58.7090646882	      134.4201639111	     -140.7455446318	       61.8750646469	        0.0269639170	       68.2438023115	       10.5876773136	       -3.4026737851	       19.3902232406	        3.1790966630	       -0.1225745478	        0.1728413556	       83.2501176535	      -64.0445192577	       14.6067002639	        7.0604096044	        6.3244509734	        3.1393464740	        9.3171862914	       -0.0806362523	        0.4828186342	       -0.7407745729	        2.9384894623	       -1.6172601061	       -1.9274974964	        8.3503961112	       -0.2387264914	       -0.0236504917	       -0.7946763903	
